<svg viewBox="138 41 466 126" fill="none" xmlns="http://www.w3.org/2000/svg"><path d="M154.195 41.4167V167H138.988V41.4167H154.195ZM185.108 110.34V167H170.637V72.8125H184.618V87.5293H185.844C188.052 82.7463 191.404 78.9036 195.901 76.0011C200.397 73.0578 206.202 71.5861 213.315 71.5861C219.693 71.5861 225.273 72.8943 230.056 75.5106C234.839 78.086 238.559 82.0105 241.216 87.284C243.873 92.5167 245.202 99.1392 245.202 107.152V167H230.73V108.133C230.73 100.734 228.809 94.9695 224.966 90.8406C221.124 86.6708 215.85 84.5859 209.146 84.5859C204.526 84.5859 200.397 85.5875 196.759 87.5906C193.162 89.5937 190.32 92.5167 188.236 96.3594C186.151 100.202 185.108 104.862 185.108 110.34ZM259.559 202.32V72.8125H273.54V87.7746H275.257C276.32 86.1394 277.791 84.0545 279.672 81.5199C281.593 78.9445 284.332 76.6552 287.889 74.6521C291.486 72.6081 296.351 71.5861 302.483 71.5861C310.413 71.5861 317.404 73.5688 323.454 77.5341C329.504 81.4995 334.226 87.1205 337.619 94.3971C341.012 101.674 342.709 110.259 342.709 120.152C342.709 130.126 341.012 138.772 337.619 146.09C334.226 153.367 329.525 159.008 323.515 163.014C317.506 166.98 310.577 168.962 302.728 168.962C296.678 168.962 291.833 167.961 288.195 165.958C284.557 163.914 281.757 161.604 279.794 159.028C277.832 156.412 276.32 154.245 275.257 152.528H274.03V202.32H259.559ZM273.785 119.906C273.785 127.019 274.827 133.294 276.912 138.731C278.997 144.128 282.043 148.359 286.049 151.425C290.055 154.45 294.961 155.962 300.766 155.962C306.816 155.962 311.865 154.368 315.912 151.179C320 147.95 323.066 143.617 325.11 138.18C327.195 132.702 328.237 126.611 328.237 119.906C328.237 113.284 327.215 107.315 325.171 102.001C323.168 96.6455 320.122 92.4145 316.034 89.3076C311.987 86.1598 306.898 84.5859 300.766 84.5859C294.879 84.5859 289.933 86.0781 285.926 89.0623C281.92 92.0057 278.895 96.1345 276.851 101.449C274.807 106.722 273.785 112.875 273.785 119.906ZM367.168 41.4167V167H352.696V41.4167H367.168ZM381.586 167V72.8125H396.058V167H381.586ZM388.945 57.1146C386.124 57.1146 383.691 56.1539 381.647 54.2325C379.644 52.3112 378.643 50.0015 378.643 47.3034C378.643 44.6053 379.644 42.2956 381.647 40.3742C383.691 38.4529 386.124 37.4922 388.945 37.4922C391.765 37.4922 394.177 38.4529 396.18 40.3742C398.224 42.2956 399.246 44.6053 399.246 47.3034C399.246 50.0015 398.224 52.3112 396.18 54.2325C394.177 56.1539 391.765 57.1146 388.945 57.1146ZM448.739 168.962C439.909 168.962 432.306 166.877 425.928 162.708C419.551 158.538 414.646 152.794 411.212 145.477C407.778 138.159 406.061 129.799 406.061 120.397C406.061 110.831 407.819 102.389 411.334 95.0717C414.891 87.7133 419.837 81.9696 426.174 77.8407C432.551 73.671 439.991 71.5861 448.494 71.5861C455.117 71.5861 461.085 72.8125 466.4 75.2653C471.714 77.7181 476.068 81.152 479.461 85.5671C482.854 89.9821 484.959 95.133 485.777 101.02H471.305C470.201 96.7273 467.749 92.9255 463.947 89.6142C460.186 86.262 455.117 84.5859 448.739 84.5859C443.098 84.5859 438.152 86.0576 433.9 89.001C429.689 91.9035 426.399 96.0119 424.028 101.326C421.697 106.6 420.532 112.793 420.532 119.906C420.532 127.183 421.677 133.519 423.966 138.915C426.296 144.312 429.567 148.502 433.777 151.486C438.029 154.47 443.016 155.962 448.739 155.962C452.5 155.962 455.914 155.308 458.98 154C462.046 152.692 464.642 150.812 466.768 148.359C468.893 145.906 470.406 142.963 471.305 139.529H485.777C484.959 145.088 482.936 150.096 479.706 154.552C476.517 158.967 472.286 162.483 467.013 165.099C461.78 167.675 455.689 168.962 448.739 168.962ZM494.845 167V72.8125H509.316V167H494.845ZM502.203 57.1146C499.382 57.1146 496.95 56.1539 494.906 54.2325C492.903 52.3112 491.901 50.0015 491.901 47.3034C491.901 44.6053 492.903 42.2956 494.906 40.3742C496.95 38.4529 499.382 37.4922 502.203 37.4922C505.024 37.4922 507.436 38.4529 509.439 40.3742C511.483 42.2956 512.505 44.6053 512.505 47.3034C512.505 50.0015 511.483 52.3112 509.439 54.2325C507.436 56.1539 505.024 57.1146 502.203 57.1146ZM564.696 72.8125V85.0765H515.885V72.8125H564.696ZM530.112 50.2467H544.583V140.019C544.583 144.107 545.176 147.173 546.362 149.217C547.588 151.22 549.141 152.569 551.022 153.264C552.943 153.918 554.967 154.245 557.093 154.245C558.687 154.245 559.995 154.164 561.017 154C562.039 153.796 562.857 153.632 563.47 153.51L566.413 166.509C565.432 166.877 564.063 167.245 562.305 167.613C560.547 168.022 558.319 168.226 555.621 168.226C551.533 168.226 547.527 167.347 543.602 165.59C539.719 163.832 536.489 161.154 533.914 157.557C531.379 153.959 530.112 149.422 530.112 143.944V50.2467Z" fill="currentColor"/></svg>